<svg xmlns="http://www.w3.org/2000/svg" viewBox="0 0 90 18" width="90" height="18" role="img" aria-label="2 out of 5 stars">
  <polygon points="9.00,0.80 10.94,6.33 16.80,6.47 12.14,10.02 13.82,15.63 9.00,12.30 4.18,15.63 5.86,10.02 1.20,6.47 7.06,6.33" fill="#1f5f8b" stroke="#1f5f8b" stroke-width="0.8" stroke-linejoin="round"/>
  <polygon points="27.00,0.80 28.94,6.33 34.80,6.47 30.14,10.02 31.82,15.63 27.00,12.30 22.18,15.63 23.86,10.02 19.20,6.47 25.06,6.33" fill="#1f5f8b" stroke="#1f5f8b" stroke-width="0.8" stroke-linejoin="round"/>
  <polygon points="45.00,0.80 46.94,6.33 52.80,6.47 48.14,10.02 49.82,15.63 45.00,12.30 40.18,15.63 41.86,10.02 37.20,6.47 43.06,6.33" fill="#e7ded3" stroke="#9aa7b0" stroke-width="0.8" stroke-linejoin="round"/>
  <polygon points="63.00,0.80 64.94,6.33 70.80,6.47 66.14,10.02 67.82,15.63 63.00,12.30 58.18,15.63 59.86,10.02 55.20,6.47 61.06,6.33" fill="#e7ded3" stroke="#9aa7b0" stroke-width="0.8" stroke-linejoin="round"/>
  <polygon points="81.00,0.80 82.94,6.33 88.80,6.47 84.14,10.02 85.82,15.63 81.00,12.30 76.18,15.63 77.86,10.02 73.20,6.47 79.06,6.33" fill="#e7ded3" stroke="#9aa7b0" stroke-width="0.8" stroke-linejoin="round"/>
</svg>
